<svg xmlns="http://www.w3.org/2000/svg" xmlns:xlink="http://www.w3.org/1999/xlink" version="1.1" x="0px" y="0px" viewBox="0 0 512 640" style="enable-background:new 0 0 512 512;" xml:space="preserve"><g><g><g><path d="M256.04,324.479c-9.24,0-18.21-1.81-26.65-5.38c-8.15-3.45-15.48-8.38-21.77-14.66c-6.29-6.29-11.22-13.6-14.67-21.75     c-3.57-8.42-5.38-17.38-5.39-26.6c0-9.25,1.82-18.21,5.39-26.65c3.45-8.16,8.38-15.48,14.67-21.77s13.61-11.23,21.77-14.68     c8.44-3.57,17.41-5.38,26.65-5.38c9.229,0,18.18,1.81,26.609,5.38c8.141,3.45,15.45,8.39,21.74,14.68     c6.28,6.29,11.22,13.61,14.66,21.77c3.57,8.44,5.39,17.41,5.39,26.65c0,9.22-1.819,18.17-5.39,26.6     c-3.45,8.15-8.38,15.46-14.66,21.74c-6.29,6.29-13.6,11.22-21.74,14.67C274.22,322.67,265.27,324.479,256.04,324.479z      M256.04,195.61c-16.15,0-31.33,6.29-42.76,17.71c-11.42,11.43-17.71,26.62-17.72,42.77c0.01,16.11,6.3,31.27,17.72,42.68     c11.43,11.42,26.62,17.71,42.76,17.71c16.109,0,31.27-6.29,42.689-17.699c11.42-11.431,17.71-26.591,17.71-42.69     c0-16.14-6.29-31.33-17.71-42.77C287.31,201.9,272.149,195.61,256.04,195.61z"/></g><g><path d="M256.04,295L256.04,295c-10.41,0-20.19-4.05-27.53-11.41c-7.34-7.35-11.38-17.12-11.38-27.5     c0-5.26,1.03-10.36,3.05-15.17c1.96-4.64,4.76-8.8,8.33-12.36c3.56-3.57,7.72-6.37,12.36-8.33c4.8-2.02,9.9-3.05,15.16-3.05h0.03     c5.24,0,10.32,1.03,15.11,3.05c4.63,1.96,8.78,4.76,12.33,8.33c3.56,3.56,6.359,7.72,8.31,12.37c2.03,4.8,3.05,9.9,3.05,15.16     c0,10.38-4.04,20.14-11.359,27.5C276.17,290.939,266.42,295,256.04,295z M256.04,225.18c-17.04,0.01-30.9,13.87-30.91,30.91     c0.03,17.01,13.9,30.88,30.91,30.91c16.96-0.03,30.79-13.9,30.819-30.91C286.859,239.05,273.03,225.18,256.04,225.18     L256.04,225.18z"/></g><g><path d="M256.07,361.75h-0.06c-34,0-67.64-6.58-99.97-19.55c-31.29-12.561-61.21-31.021-88.92-54.891     c-0.81-0.689-1.3-1.66-1.38-2.729c-0.08-1.07,0.26-2.101,0.96-2.91c0.76-0.88,1.86-1.39,3.03-1.39c0.96,0,1.88,0.34,2.61,0.97     c55.11,47.43,118.63,72.5,183.7,72.5c76.72,0,149.54-33.96,210.59-98.2c-0.03-0.19-0.04-0.39-0.04-0.58     c0-1.11,0.45-2.13,1.25-2.89c0.75-0.7,1.72-1.09,2.75-1.09c1.11,0,2.14,0.45,2.91,1.26c0.35,0.36,0.689,0.73,1.04,1.11     c1.43,1.53,1.43,3.93,0,5.459c-30.561,32.681-64.521,58.12-100.931,75.62C335.899,352.56,296.35,361.75,256.07,361.75z      M54.93,274.83c-1.03,0-2.02-0.4-2.77-1.12c0,0,0,0,0-0.01c-0.77-0.74-1.2-1.73-1.23-2.79c-0.02-1.07,0.38-2.08,1.12-2.851     c0.76-0.8,1.78-1.229,2.88-1.229c1.04,0,2.02,0.39,2.76,1.1c0.01,0,0.01,0.01,0.01,0.01c1.6,1.53,1.65,4.061,0.12,5.66     C57.06,274.39,56.04,274.83,54.93,274.83z M40.87,260.609c-1.1,0-2.16-0.46-2.91-1.26l-0.11-0.12c-0.13-0.13-0.26-0.27-0.39-0.41     c-1.43-1.529-1.43-3.93,0-5.47c30.62-32.69,64.59-58.15,100.97-75.65c37.73-18.16,77.29-27.36,117.59-27.36h0.05     c33.84,0,67.34,6.54,99.58,19.44c31.181,12.49,61.011,30.84,88.641,54.55c1.68,1.44,1.87,3.97,0.439,5.64     c-0.77,0.89-1.87,1.4-3.04,1.4c-0.96,0-1.88-0.35-2.6-0.97c-54.98-47.14-118.271-72.06-183.05-72.06     c-76.88,0-149.92,34.19-211.21,98.86c-0.14,0.899-0.56,1.699-1.22,2.33C42.87,260.229,41.89,260.609,40.87,260.609z M456.5,244.8     c-1.03,0-2.01-0.4-2.76-1.11c-0.771-0.74-1.21-1.74-1.23-2.8c-0.03-1.07,0.37-2.09,1.11-2.86c0.76-0.8,1.779-1.23,2.89-1.23     c1.03,0,2.01,0.39,2.75,1.1c0.01,0,0.01,0,0.01,0.01c1.59,1.52,1.65,4.06,0.13,5.65C458.63,244.36,457.609,244.8,456.5,244.8z"/></g><g><path d="M256.04,345.92c-12.13,0-23.9-2.38-34.98-7.061c-10.71-4.52-20.33-11-28.59-19.239c-8.26-8.25-14.74-17.86-19.28-28.561     c-4.69-11.069-7.07-22.84-7.07-34.97c0-15.89,4.21-31.51,12.18-45.18c0.71-1.22,2.03-1.99,3.46-1.99c0.7,0,1.39,0.19,2.01,0.55     c1.9,1.11,2.55,3.56,1.44,5.47c-7.25,12.45-11.09,26.68-11.09,41.15c0.01,21.85,8.53,42.4,24.01,57.86     c15.47,15.46,36.04,23.97,57.91,23.97c21.859,0,42.41-8.51,57.87-23.96c15.449-15.46,23.96-36.01,23.96-57.87     c0-21.87-8.511-42.44-23.96-57.92c-15.46-15.47-36.011-24-57.87-24c-15.99,0-31.49,4.62-44.81,13.35c-0.01,0-0.01,0.01-0.01,0.01     c-0.66,0.42-1.41,0.65-2.18,0.65c-1.36,0-2.61-0.68-3.35-1.81c-0.43-0.66-0.66-1.42-0.66-2.2c0.01-1.35,0.68-2.6,1.81-3.34     c14.63-9.59,31.64-14.66,49.19-14.66c12.14,0,23.91,2.38,34.99,7.07c10.69,4.53,20.3,11.02,28.55,19.28     c8.24,8.26,14.721,17.88,19.24,28.58c4.69,11.09,7.061,22.86,7.061,34.99s-2.38,23.9-7.061,34.97c-4.52,10.7-11,20.3-19.24,28.55     c-8.25,8.25-17.859,14.73-28.56,19.25C279.939,343.54,268.17,345.92,256.04,345.92z M193.72,200.96c-1.03,0-2-0.39-2.75-1.09     c-0.77-0.74-1.22-1.73-1.25-2.8c-0.02-1.07,0.37-2.08,1.1-2.86c0.76-0.8,1.79-1.25,2.9-1.25c1.03,0,2.01,0.39,2.76,1.1     c1.6,1.52,1.66,4.06,0.15,5.66c-0.01,0-0.01,0-0.01,0.01C195.85,200.52,194.83,200.96,193.72,200.96z"/></g><g><path d="M256.04,114.94c-2.2,0-4-1.79-4-4V59.32c0-2.21,1.8-4,4-4c2.21,0,4,1.79,4,4v51.62     C260.04,113.15,258.25,114.94,256.04,114.94z"/></g><g><path d="M405.569,176.1c-1.43,0-2.76-0.77-3.47-2c-0.53-0.92-0.68-2-0.399-3.03c0.27-1.04,0.93-1.9,1.859-2.43l44.71-25.9     c0.61-0.36,1.3-0.54,2-0.54c1.42,0,2.75,0.76,3.46,1.99c1.11,1.91,0.46,4.37-1.449,5.47l-44.711,25.9     C406.96,175.91,406.27,176.1,405.569,176.1z"/></g><g><path d="M106.52,176.1c-0.7,0-1.39-0.19-2-0.54l-44.79-25.9c-1.91-1.1-2.57-3.55-1.47-5.46c0.72-1.24,2.05-2,3.47-2     c0.7,0,1.39,0.18,2,0.54l44.8,25.89c1.91,1.11,2.56,3.56,1.46,5.47C109.27,175.33,107.95,176.1,106.52,176.1z"/></g><g><path d="M338.37,119.75c-0.7,0-1.391-0.18-2-0.53c-1.91-1.1-2.57-3.56-1.46-5.47l15.739-27.29c0.721-1.24,2.051-2.01,3.471-2.01     c0.699,0,1.39,0.19,2,0.54c1.91,1.1,2.569,3.55,1.46,5.46l-15.75,27.3C341.12,118.99,339.79,119.75,338.37,119.75z"/></g><g><path d="M173.63,119.75c-1.43,0-2.76-0.76-3.47-2l-15.75-27.3c-0.53-0.92-0.68-2-0.4-3.03c0.28-1.03,0.94-1.9,1.87-2.43     c0.6-0.35,1.29-0.54,1.99-0.54c1.43,0,2.76,0.77,3.47,2.01l15.75,27.29c1.1,1.91,0.44,4.36-1.47,5.47     C175.01,119.57,174.32,119.75,173.63,119.75z"/></g><g><path d="M256.04,456.77c-2.2,0-4-1.8-4-4v-51.62c0-2.21,1.8-4,4-4c2.21,0,4,1.79,4,4v51.62     C260.04,454.97,258.25,456.77,256.04,456.77z"/></g><g><path d="M450.27,369.8c-0.7,0-1.39-0.18-2-0.53l-44.71-25.81c-1.91-1.101-2.56-3.561-1.46-5.47c0.71-1.23,2.04-2,3.47-2     c0.7,0,1.381,0.189,1.99,0.54l44.71,25.81c1.91,1.1,2.57,3.55,1.471,5.46C453.02,369.03,451.689,369.8,450.27,369.8z"/></g><g><path d="M61.73,369.8c-1.43,0-2.75-0.77-3.47-2c-0.53-0.93-0.67-2.01-0.39-3.04c0.27-1.03,0.94-1.89,1.86-2.42l44.8-25.81     c0.6-0.351,1.29-0.54,1.99-0.54c1.43,0,2.76,0.77,3.47,2.01c1.1,1.91,0.44,4.359-1.47,5.46l-44.79,25.81     C63.12,369.62,62.43,369.8,61.73,369.8z"/></g><g><path d="M354.12,427.55c-1.42,0-2.75-0.77-3.46-2l-15.75-27.21c-1.11-1.91-0.45-4.36,1.46-5.46c0.609-0.36,1.3-0.54,2-0.54     c1.42,0,2.75,0.76,3.46,1.99l15.75,27.21c1.109,1.91,0.45,4.359-1.46,5.47C355.52,427.359,354.819,427.55,354.12,427.55z"/></g><g><path d="M157.87,427.55c-0.7,0-1.39-0.19-2-0.54c-0.92-0.54-1.58-1.4-1.86-2.44c-0.28-1.029-0.13-2.1,0.4-3.029l15.75-27.21     c0.71-1.23,2.04-1.99,3.47-1.99c0.7,0,1.39,0.18,2,0.54c0.92,0.53,1.58,1.39,1.86,2.43c0.27,1.03,0.13,2.11-0.4,3.03     l-15.75,27.21C160.62,426.78,159.3,427.55,157.87,427.55z"/></g><g><path d="M237.58,77.85c-1.23,0-2.37-0.56-3.14-1.52c-0.66-0.84-0.96-1.89-0.83-2.95c0.12-1.06,0.65-2.01,1.49-2.67l18.46-14.61     c0.71-0.57,1.57-0.87,2.48-0.87c1.229,0,2.38,0.56,3.14,1.52c1.37,1.73,1.07,4.25-0.649,5.62l-18.47,14.61     C239.35,77.55,238.49,77.85,237.58,77.85z"/></g><g><path d="M274.41,77.85c-0.91,0-1.771-0.31-2.49-0.87l-18.37-14.62c-0.83-0.66-1.36-1.61-1.48-2.67     c-0.12-1.07,0.18-2.11,0.84-2.95c0.77-0.96,1.91-1.51,3.14-1.51c0.91,0,1.77,0.3,2.48,0.87l18.369,14.62     c1.73,1.37,2.021,3.89,0.641,5.61C276.78,77.29,275.64,77.85,274.41,77.85z"/></g><g><path d="M256.04,456.77L256.04,456.77c-0.9,0-1.76-0.3-2.47-0.859l-18.46-14.521c-1.74-1.37-2.04-3.89-0.67-5.62     c0.76-0.97,1.91-1.529,3.14-1.529c0.91,0,1.76,0.3,2.47,0.859l18.47,14.521c0.84,0.66,1.37,1.609,1.5,2.67     c0.12,1.06-0.17,2.109-0.83,2.95C258.42,456.21,257.28,456.77,256.04,456.77z"/></g><g><path d="M256.05,456.77c-1.24,0-2.38-0.56-3.14-1.52c-0.67-0.84-0.96-1.891-0.84-2.95s0.65-2.01,1.49-2.67l18.37-14.521     c0.71-0.569,1.57-0.869,2.48-0.869c1.229,0,2.37,0.56,3.14,1.52c0.66,0.84,0.96,1.89,0.83,2.95c-0.12,1.06-0.65,2.01-1.49,2.67     l-18.37,14.52C257.81,456.47,256.95,456.77,256.05,456.77z"/></g></g></g><text x="0" y="527" fill="#000000" font-size="5px" font-weight="bold" font-family="'Helvetica Neue', Helvetica, Arial-Unicode, Arial, Sans-serif">Created by Flatart</text><text x="0" y="532" fill="#000000" font-size="5px" font-weight="bold" font-family="'Helvetica Neue', Helvetica, Arial-Unicode, Arial, Sans-serif">from the Noun Project</text></svg>